<svg width="356" height="68" viewBox="0 0 356 68" fill="none" xmlns="http://www.w3.org/2000/svg">
<path d="M34.455 68C28.2476 68 22.5417 66.5579 17.3375 63.6736C12.1332 60.7266 7.9949 56.6823 4.92251 51.5408C1.91283 46.3366 0.40799 40.474 0.40799 33.953C0.40799 27.432 1.91283 21.6007 4.92251 16.4592C7.9949 11.255 12.1332 7.2107 17.3375 4.32642C22.5417 1.44214 28.2476 0 34.455 0C40.7252 0 46.431 1.44214 51.5726 4.32642C56.7768 7.2107 60.8838 11.255 63.8935 16.4592C66.9032 21.6007 68.408 27.432 68.408 33.953C68.408 40.474 66.9032 46.3366 63.8935 51.5408C60.8838 56.6823 56.7768 60.7266 51.5726 63.6736C46.3683 66.5579 40.6625 68 34.455 68Z" fill="#2D89EF"/>
<path d="M138.111 67.3416H119.677L95.1292 30.2849V67.3416H76.6949V1.03458H95.1292L119.677 38.5615V1.03458H138.111V67.3416Z" fill="#2D89EF"/>
<path d="M167.046 15.8008V26.6169H188.208V40.6307H167.046V52.5754H191.03V67.3416H148.612V1.03458H191.03V15.8008H167.046Z" fill="#2D89EF"/>
<path fill-rule="evenodd" clip-rule="evenodd" d="M0.442291 34C3.66074 18.5283 17.6857 6.88049 34.5 6.88049C51.3143 6.88049 65.3392 18.5283 68.5577 34C65.3392 49.4717 51.3143 61.1195 34.5 61.1195C17.6857 61.1195 3.66074 49.4717 0.442291 34ZM34.5 50.9497C39.0163 50.9497 43.3477 49.1639 46.5412 45.9852C49.7347 42.8065 51.5288 38.4953 51.5288 34C51.5288 29.5047 49.7347 25.1934 46.5412 22.0148C43.3477 18.8361 39.0163 17.0503 34.5 17.0503C29.9837 17.0503 25.6523 18.8361 22.4588 22.0148C19.2652 25.1934 17.4711 29.5047 17.4711 34C17.4711 38.4953 19.2652 42.8065 22.4588 45.9852C25.6523 49.1639 29.9837 50.9497 34.5 50.9497ZM34.5 44.1698C37.2098 44.1698 39.8086 43.0983 41.7247 41.1911C43.6408 39.2839 44.7173 36.6972 44.7173 34C44.7173 31.3028 43.6408 28.7161 41.7247 26.8088C39.8086 24.9016 37.2098 23.8302 34.5 23.8302C31.7902 23.8302 29.1914 24.9016 27.2753 26.8088C25.3591 28.7161 24.2827 31.3028 24.2827 34C24.2827 36.6972 25.3591 39.2839 27.2753 41.1911C29.1914 43.0983 31.7902 44.1698 34.5 44.1698V44.1698Z" fill="white"/>
<circle cx="229.03" cy="34" r="22" fill="#4A4A4A"/>
<path d="M229.59 39.7447H235.803V44H224.03V24H229.59V39.7447Z" fill="white"/>
<circle cx="281.03" cy="34" r="22" fill="#4A4A4A"/>
<path d="M280.945 24C283.044 24 284.878 24.4255 286.448 25.2766C288.037 26.1087 289.257 27.2813 290.108 28.7943C290.959 30.3073 291.384 32.0378 291.384 33.9858C291.384 35.9149 290.949 37.6359 290.079 39.1489C289.228 40.6619 288.008 41.8534 286.42 42.7234C284.85 43.5745 283.025 44 280.945 44H273.03V24H280.945ZM280.519 39.0922C282.146 39.0922 283.422 38.6478 284.349 37.7589C285.276 36.87 285.739 35.6123 285.739 33.9858C285.739 32.3404 285.276 31.0733 284.349 30.1844C283.422 29.2766 282.146 28.8227 280.519 28.8227H278.59V39.0922H280.519Z" fill="white"/>
<circle cx="333.03" cy="34" r="22" fill="#4A4A4A"/>
<path d="M329.507 24V35.4888C329.507 36.5562 329.751 37.3801 330.238 37.9607C330.743 38.5412 331.502 38.8315 332.513 38.8315C333.524 38.8315 334.283 38.5412 334.788 37.9607C335.313 37.3614 335.575 36.5375 335.575 35.4888V24H341.08V35.4888C341.08 37.3052 340.696 38.8595 339.929 40.1517C339.161 41.4251 338.112 42.3895 336.783 43.0449C335.472 43.6816 334.011 44 332.401 44C330.79 44 329.348 43.6816 328.075 43.0449C326.82 42.3895 325.828 41.4251 325.097 40.1517C324.386 38.8783 324.03 37.324 324.03 35.4888V24H329.507Z" fill="white"/>
</svg>
